<mxfile host="Electron" agent="Mozilla/5.0 (Windows NT 10.0; Win64; x64) AppleWebKit/537.36 (KHTML, like Gecko) draw.io/26.2.15 Chrome/134.0.6998.205 Electron/35.2.1 Safari/537.36" version="26.2.15">
  <diagram name="Страница — 1" id="bLrMLPar97oH9QPDvLtB">
    <mxGraphModel dx="2220" dy="1306" grid="1" gridSize="10" guides="1" tooltips="1" connect="1" arrows="1" fold="1" page="1" pageScale="1" pageWidth="827" pageHeight="1169" math="0" shadow="0">
      <root>
        <mxCell id="0" />
        <mxCell id="1" parent="0" />
        <mxCell id="9yVn5tu1MOSAHcyBRN-_-1" value="obj_users" style="swimlane;fontStyle=0;childLayout=stackLayout;horizontal=1;startSize=30;horizontalStack=0;resizeParent=1;resizeParentMax=0;resizeLast=0;collapsible=1;marginBottom=0;whiteSpace=wrap;html=1;" parent="1" vertex="1">
          <mxGeometry x="120" y="160" width="140" height="150" as="geometry" />
        </mxCell>
        <mxCell id="mxWsvHkhdjBiguELYli5-2" value="" style="endArrow=none;html=1;rounded=0;entryX=0;entryY=0.5;entryDx=0;entryDy=0;" parent="9yVn5tu1MOSAHcyBRN-_-1" target="9yVn5tu1MOSAHcyBRN-_-2" edge="1">
          <mxGeometry width="50" height="50" relative="1" as="geometry">
            <mxPoint x="-80" y="45" as="sourcePoint" />
            <mxPoint x="-50" y="100" as="targetPoint" />
            <Array as="points" />
          </mxGeometry>
        </mxCell>
        <mxCell id="9yVn5tu1MOSAHcyBRN-_-2" value="id" style="text;strokeColor=none;fillColor=none;align=left;verticalAlign=middle;spacingLeft=4;spacingRight=4;overflow=hidden;points=[[0,0.5],[1,0.5]];portConstraint=eastwest;rotatable=0;whiteSpace=wrap;html=1;" parent="9yVn5tu1MOSAHcyBRN-_-1" vertex="1">
          <mxGeometry y="30" width="140" height="30" as="geometry" />
        </mxCell>
        <mxCell id="9yVn5tu1MOSAHcyBRN-_-3" value="name" style="text;strokeColor=none;fillColor=none;align=left;verticalAlign=middle;spacingLeft=4;spacingRight=4;overflow=hidden;points=[[0,0.5],[1,0.5]];portConstraint=eastwest;rotatable=0;whiteSpace=wrap;html=1;" parent="9yVn5tu1MOSAHcyBRN-_-1" vertex="1">
          <mxGeometry y="60" width="140" height="30" as="geometry" />
        </mxCell>
        <mxCell id="9yVn5tu1MOSAHcyBRN-_-4" value="login" style="text;strokeColor=none;fillColor=none;align=left;verticalAlign=middle;spacingLeft=4;spacingRight=4;overflow=hidden;points=[[0,0.5],[1,0.5]];portConstraint=eastwest;rotatable=0;whiteSpace=wrap;html=1;" parent="9yVn5tu1MOSAHcyBRN-_-1" vertex="1">
          <mxGeometry y="90" width="140" height="30" as="geometry" />
        </mxCell>
        <mxCell id="9yVn5tu1MOSAHcyBRN-_-5" value="password" style="text;strokeColor=none;fillColor=none;align=left;verticalAlign=middle;spacingLeft=4;spacingRight=4;overflow=hidden;points=[[0,0.5],[1,0.5]];portConstraint=eastwest;rotatable=0;whiteSpace=wrap;html=1;" parent="9yVn5tu1MOSAHcyBRN-_-1" vertex="1">
          <mxGeometry y="120" width="140" height="30" as="geometry" />
        </mxCell>
        <mxCell id="9yVn5tu1MOSAHcyBRN-_-6" value="obj_equipments" style="swimlane;fontStyle=0;childLayout=stackLayout;horizontal=1;startSize=30;horizontalStack=0;resizeParent=1;resizeParentMax=0;resizeLast=0;collapsible=1;marginBottom=0;whiteSpace=wrap;html=1;" parent="1" vertex="1">
          <mxGeometry x="302" y="159" width="140" height="90" as="geometry" />
        </mxCell>
        <mxCell id="9yVn5tu1MOSAHcyBRN-_-7" value="id" style="text;strokeColor=none;fillColor=none;align=left;verticalAlign=middle;spacingLeft=4;spacingRight=4;overflow=hidden;points=[[0,0.5],[1,0.5]];portConstraint=eastwest;rotatable=0;whiteSpace=wrap;html=1;" parent="9yVn5tu1MOSAHcyBRN-_-6" vertex="1">
          <mxGeometry y="30" width="140" height="30" as="geometry" />
        </mxCell>
        <mxCell id="9yVn5tu1MOSAHcyBRN-_-8" value="amount" style="text;strokeColor=none;fillColor=none;align=left;verticalAlign=middle;spacingLeft=4;spacingRight=4;overflow=hidden;points=[[0,0.5],[1,0.5]];portConstraint=eastwest;rotatable=0;whiteSpace=wrap;html=1;" parent="9yVn5tu1MOSAHcyBRN-_-6" vertex="1">
          <mxGeometry y="60" width="140" height="30" as="geometry" />
        </mxCell>
        <mxCell id="9yVn5tu1MOSAHcyBRN-_-10" value="obj_requests" style="swimlane;fontStyle=0;childLayout=stackLayout;horizontal=1;startSize=30;horizontalStack=0;resizeParent=1;resizeParentMax=0;resizeLast=0;collapsible=1;marginBottom=0;whiteSpace=wrap;html=1;" parent="1" vertex="1">
          <mxGeometry x="478" y="160" width="140" height="120" as="geometry" />
        </mxCell>
        <mxCell id="9yVn5tu1MOSAHcyBRN-_-11" value="id" style="text;strokeColor=none;fillColor=none;align=left;verticalAlign=middle;spacingLeft=4;spacingRight=4;overflow=hidden;points=[[0,0.5],[1,0.5]];portConstraint=eastwest;rotatable=0;whiteSpace=wrap;html=1;" parent="9yVn5tu1MOSAHcyBRN-_-10" vertex="1">
          <mxGeometry y="30" width="140" height="30" as="geometry" />
        </mxCell>
        <mxCell id="9yVn5tu1MOSAHcyBRN-_-12" value="created_at" style="text;strokeColor=none;fillColor=none;align=left;verticalAlign=middle;spacingLeft=4;spacingRight=4;overflow=hidden;points=[[0,0.5],[1,0.5]];portConstraint=eastwest;rotatable=0;whiteSpace=wrap;html=1;" parent="9yVn5tu1MOSAHcyBRN-_-10" vertex="1">
          <mxGeometry y="60" width="140" height="30" as="geometry" />
        </mxCell>
        <mxCell id="9yVn5tu1MOSAHcyBRN-_-13" value="closed_at" style="text;strokeColor=none;fillColor=none;align=left;verticalAlign=middle;spacingLeft=4;spacingRight=4;overflow=hidden;points=[[0,0.5],[1,0.5]];portConstraint=eastwest;rotatable=0;whiteSpace=wrap;html=1;" parent="9yVn5tu1MOSAHcyBRN-_-10" vertex="1">
          <mxGeometry y="90" width="140" height="30" as="geometry" />
        </mxCell>
        <mxCell id="9yVn5tu1MOSAHcyBRN-_-14" value="obj_request_equipments" style="swimlane;fontStyle=0;childLayout=stackLayout;horizontal=1;startSize=30;horizontalStack=0;resizeParent=1;resizeParentMax=0;resizeLast=0;collapsible=1;marginBottom=0;whiteSpace=wrap;html=1;" parent="1" vertex="1">
          <mxGeometry x="660" y="160" width="140" height="120" as="geometry" />
        </mxCell>
        <mxCell id="9yVn5tu1MOSAHcyBRN-_-15" value="id" style="text;strokeColor=none;fillColor=none;align=left;verticalAlign=middle;spacingLeft=4;spacingRight=4;overflow=hidden;points=[[0,0.5],[1,0.5]];portConstraint=eastwest;rotatable=0;whiteSpace=wrap;html=1;" parent="9yVn5tu1MOSAHcyBRN-_-14" vertex="1">
          <mxGeometry y="30" width="140" height="30" as="geometry" />
        </mxCell>
        <mxCell id="9yVn5tu1MOSAHcyBRN-_-16" value="amount" style="text;strokeColor=none;fillColor=none;align=left;verticalAlign=middle;spacingLeft=4;spacingRight=4;overflow=hidden;points=[[0,0.5],[1,0.5]];portConstraint=eastwest;rotatable=0;whiteSpace=wrap;html=1;" parent="9yVn5tu1MOSAHcyBRN-_-14" vertex="1">
          <mxGeometry y="60" width="140" height="30" as="geometry" />
        </mxCell>
        <mxCell id="9yVn5tu1MOSAHcyBRN-_-17" value="closed_at" style="text;strokeColor=none;fillColor=none;align=left;verticalAlign=middle;spacingLeft=4;spacingRight=4;overflow=hidden;points=[[0,0.5],[1,0.5]];portConstraint=eastwest;rotatable=0;whiteSpace=wrap;html=1;" parent="9yVn5tu1MOSAHcyBRN-_-14" vertex="1">
          <mxGeometry y="90" width="140" height="30" as="geometry" />
        </mxCell>
        <mxCell id="9yVn5tu1MOSAHcyBRN-_-18" value="table_object_type" style="swimlane;fontStyle=0;childLayout=stackLayout;horizontal=1;startSize=30;horizontalStack=0;resizeParent=1;resizeParentMax=0;resizeLast=0;collapsible=1;marginBottom=0;whiteSpace=wrap;html=1;" parent="1" vertex="1">
          <mxGeometry x="390" y="10" width="140" height="90" as="geometry" />
        </mxCell>
        <mxCell id="9yVn5tu1MOSAHcyBRN-_-19" value="id" style="text;strokeColor=none;fillColor=none;align=left;verticalAlign=middle;spacingLeft=4;spacingRight=4;overflow=hidden;points=[[0,0.5],[1,0.5]];portConstraint=eastwest;rotatable=0;whiteSpace=wrap;html=1;" parent="9yVn5tu1MOSAHcyBRN-_-18" vertex="1">
          <mxGeometry y="30" width="140" height="30" as="geometry" />
        </mxCell>
        <mxCell id="9yVn5tu1MOSAHcyBRN-_-20" value="name" style="text;strokeColor=none;fillColor=none;align=left;verticalAlign=middle;spacingLeft=4;spacingRight=4;overflow=hidden;points=[[0,0.5],[1,0.5]];portConstraint=eastwest;rotatable=0;whiteSpace=wrap;html=1;" parent="9yVn5tu1MOSAHcyBRN-_-18" vertex="1">
          <mxGeometry y="60" width="140" height="30" as="geometry" />
        </mxCell>
        <mxCell id="9yVn5tu1MOSAHcyBRN-_-27" value="obj_metadata" style="swimlane;fontStyle=0;childLayout=stackLayout;horizontal=1;startSize=30;horizontalStack=0;resizeParent=1;resizeParentMax=0;resizeLast=0;collapsible=1;marginBottom=0;whiteSpace=wrap;html=1;" parent="1" vertex="1">
          <mxGeometry x="70" y="10" width="140" height="90" as="geometry" />
        </mxCell>
        <mxCell id="9yVn5tu1MOSAHcyBRN-_-28" value="id" style="text;strokeColor=none;fillColor=none;align=left;verticalAlign=middle;spacingLeft=4;spacingRight=4;overflow=hidden;points=[[0,0.5],[1,0.5]];portConstraint=eastwest;rotatable=0;whiteSpace=wrap;html=1;" parent="9yVn5tu1MOSAHcyBRN-_-27" vertex="1">
          <mxGeometry y="30" width="140" height="30" as="geometry" />
        </mxCell>
        <mxCell id="9yVn5tu1MOSAHcyBRN-_-29" value="obj_type_id" style="text;strokeColor=none;fillColor=none;align=left;verticalAlign=middle;spacingLeft=4;spacingRight=4;overflow=hidden;points=[[0,0.5],[1,0.5]];portConstraint=eastwest;rotatable=0;whiteSpace=wrap;html=1;" parent="9yVn5tu1MOSAHcyBRN-_-27" vertex="1">
          <mxGeometry y="60" width="140" height="30" as="geometry" />
        </mxCell>
        <mxCell id="9yVn5tu1MOSAHcyBRN-_-31" value="" style="endArrow=none;html=1;rounded=0;exitX=0.993;exitY=0.621;exitDx=0;exitDy=0;entryX=0;entryY=0.5;entryDx=0;entryDy=0;exitPerimeter=0;" parent="1" source="9yVn5tu1MOSAHcyBRN-_-29" target="9yVn5tu1MOSAHcyBRN-_-19" edge="1">
          <mxGeometry width="50" height="50" relative="1" as="geometry">
            <mxPoint x="400" y="310" as="sourcePoint" />
            <mxPoint x="450" y="260" as="targetPoint" />
            <Array as="points">
              <mxPoint x="320" y="90" />
              <mxPoint x="320" y="55" />
            </Array>
          </mxGeometry>
        </mxCell>
        <mxCell id="9yVn5tu1MOSAHcyBRN-_-37" value="bnd_object_rubricator" style="swimlane;fontStyle=0;childLayout=stackLayout;horizontal=1;startSize=30;horizontalStack=0;resizeParent=1;resizeParentMax=0;resizeLast=0;collapsible=1;marginBottom=0;whiteSpace=wrap;html=1;" parent="1" vertex="1">
          <mxGeometry x="110" y="580" width="140" height="180" as="geometry" />
        </mxCell>
        <mxCell id="9yVn5tu1MOSAHcyBRN-_-38" value="id" style="text;strokeColor=none;fillColor=none;align=left;verticalAlign=middle;spacingLeft=4;spacingRight=4;overflow=hidden;points=[[0,0.5],[1,0.5]];portConstraint=eastwest;rotatable=0;whiteSpace=wrap;html=1;" parent="9yVn5tu1MOSAHcyBRN-_-37" vertex="1">
          <mxGeometry y="30" width="140" height="30" as="geometry" />
        </mxCell>
        <mxCell id="9yVn5tu1MOSAHcyBRN-_-39" value="object_id" style="text;strokeColor=none;fillColor=none;align=left;verticalAlign=middle;spacingLeft=4;spacingRight=4;overflow=hidden;points=[[0,0.5],[1,0.5]];portConstraint=eastwest;rotatable=0;whiteSpace=wrap;html=1;" parent="9yVn5tu1MOSAHcyBRN-_-37" vertex="1">
          <mxGeometry y="60" width="140" height="30" as="geometry" />
        </mxCell>
        <mxCell id="9yVn5tu1MOSAHcyBRN-_-42" value="rubr_id" style="text;strokeColor=none;fillColor=none;align=left;verticalAlign=middle;spacingLeft=4;spacingRight=4;overflow=hidden;points=[[0,0.5],[1,0.5]];portConstraint=eastwest;rotatable=0;whiteSpace=wrap;html=1;" parent="9yVn5tu1MOSAHcyBRN-_-37" vertex="1">
          <mxGeometry y="90" width="140" height="30" as="geometry" />
        </mxCell>
        <mxCell id="9yVn5tu1MOSAHcyBRN-_-40" value="rubr_list_id" style="text;strokeColor=none;fillColor=none;align=left;verticalAlign=middle;spacingLeft=4;spacingRight=4;overflow=hidden;points=[[0,0.5],[1,0.5]];portConstraint=eastwest;rotatable=0;whiteSpace=wrap;html=1;" parent="9yVn5tu1MOSAHcyBRN-_-37" vertex="1">
          <mxGeometry y="120" width="140" height="30" as="geometry" />
        </mxCell>
        <mxCell id="9yVn5tu1MOSAHcyBRN-_-43" value="type_id" style="text;strokeColor=none;fillColor=none;align=left;verticalAlign=middle;spacingLeft=4;spacingRight=4;overflow=hidden;points=[[0,0.5],[1,0.5]];portConstraint=eastwest;rotatable=0;whiteSpace=wrap;html=1;" parent="9yVn5tu1MOSAHcyBRN-_-37" vertex="1">
          <mxGeometry y="150" width="140" height="30" as="geometry" />
        </mxCell>
        <mxCell id="9yVn5tu1MOSAHcyBRN-_-45" value="bnd_object_rubricator_type" style="swimlane;fontStyle=0;childLayout=stackLayout;horizontal=1;startSize=30;horizontalStack=0;resizeParent=1;resizeParentMax=0;resizeLast=0;collapsible=1;marginBottom=0;whiteSpace=wrap;html=1;" parent="1" vertex="1">
          <mxGeometry x="319" y="570" width="160" height="90" as="geometry" />
        </mxCell>
        <mxCell id="9yVn5tu1MOSAHcyBRN-_-46" value="id" style="text;strokeColor=none;fillColor=none;align=left;verticalAlign=middle;spacingLeft=4;spacingRight=4;overflow=hidden;points=[[0,0.5],[1,0.5]];portConstraint=eastwest;rotatable=0;whiteSpace=wrap;html=1;" parent="9yVn5tu1MOSAHcyBRN-_-45" vertex="1">
          <mxGeometry y="30" width="160" height="30" as="geometry" />
        </mxCell>
        <mxCell id="9yVn5tu1MOSAHcyBRN-_-47" value="name" style="text;strokeColor=none;fillColor=none;align=left;verticalAlign=middle;spacingLeft=4;spacingRight=4;overflow=hidden;points=[[0,0.5],[1,0.5]];portConstraint=eastwest;rotatable=0;whiteSpace=wrap;html=1;" parent="9yVn5tu1MOSAHcyBRN-_-45" vertex="1">
          <mxGeometry y="60" width="160" height="30" as="geometry" />
        </mxCell>
        <mxCell id="9yVn5tu1MOSAHcyBRN-_-50" value="bnd_object_object" style="swimlane;fontStyle=0;childLayout=stackLayout;horizontal=1;startSize=30;horizontalStack=0;resizeParent=1;resizeParentMax=0;resizeLast=0;collapsible=1;marginBottom=0;whiteSpace=wrap;html=1;" parent="1" vertex="1">
          <mxGeometry x="110" y="400" width="140" height="150" as="geometry" />
        </mxCell>
        <mxCell id="9yVn5tu1MOSAHcyBRN-_-51" value="id" style="text;strokeColor=none;fillColor=none;align=left;verticalAlign=middle;spacingLeft=4;spacingRight=4;overflow=hidden;points=[[0,0.5],[1,0.5]];portConstraint=eastwest;rotatable=0;whiteSpace=wrap;html=1;" parent="9yVn5tu1MOSAHcyBRN-_-50" vertex="1">
          <mxGeometry y="30" width="140" height="30" as="geometry" />
        </mxCell>
        <mxCell id="9yVn5tu1MOSAHcyBRN-_-52" value="main_object_id" style="text;strokeColor=none;fillColor=none;align=left;verticalAlign=middle;spacingLeft=4;spacingRight=4;overflow=hidden;points=[[0,0.5],[1,0.5]];portConstraint=eastwest;rotatable=0;whiteSpace=wrap;html=1;" parent="9yVn5tu1MOSAHcyBRN-_-50" vertex="1">
          <mxGeometry y="60" width="140" height="30" as="geometry" />
        </mxCell>
        <mxCell id="9yVn5tu1MOSAHcyBRN-_-53" value="secondary_object_id" style="text;strokeColor=none;fillColor=none;align=left;verticalAlign=middle;spacingLeft=4;spacingRight=4;overflow=hidden;points=[[0,0.5],[1,0.5]];portConstraint=eastwest;rotatable=0;whiteSpace=wrap;html=1;" parent="9yVn5tu1MOSAHcyBRN-_-50" vertex="1">
          <mxGeometry y="90" width="140" height="30" as="geometry" />
        </mxCell>
        <mxCell id="9yVn5tu1MOSAHcyBRN-_-56" value="type_id" style="text;strokeColor=none;fillColor=none;align=left;verticalAlign=middle;spacingLeft=4;spacingRight=4;overflow=hidden;points=[[0,0.5],[1,0.5]];portConstraint=eastwest;rotatable=0;whiteSpace=wrap;html=1;" parent="9yVn5tu1MOSAHcyBRN-_-50" vertex="1">
          <mxGeometry y="120" width="140" height="30" as="geometry" />
        </mxCell>
        <mxCell id="9yVn5tu1MOSAHcyBRN-_-57" value="bnd_object_object_type" style="swimlane;fontStyle=0;childLayout=stackLayout;horizontal=1;startSize=30;horizontalStack=0;resizeParent=1;resizeParentMax=0;resizeLast=0;collapsible=1;marginBottom=0;whiteSpace=wrap;html=1;" parent="1" vertex="1">
          <mxGeometry x="320" y="400" width="160" height="90" as="geometry" />
        </mxCell>
        <mxCell id="9yVn5tu1MOSAHcyBRN-_-58" value="id" style="text;strokeColor=none;fillColor=none;align=left;verticalAlign=middle;spacingLeft=4;spacingRight=4;overflow=hidden;points=[[0,0.5],[1,0.5]];portConstraint=eastwest;rotatable=0;whiteSpace=wrap;html=1;" parent="9yVn5tu1MOSAHcyBRN-_-57" vertex="1">
          <mxGeometry y="30" width="160" height="30" as="geometry" />
        </mxCell>
        <mxCell id="9yVn5tu1MOSAHcyBRN-_-59" value="name" style="text;strokeColor=none;fillColor=none;align=left;verticalAlign=middle;spacingLeft=4;spacingRight=4;overflow=hidden;points=[[0,0.5],[1,0.5]];portConstraint=eastwest;rotatable=0;whiteSpace=wrap;html=1;" parent="9yVn5tu1MOSAHcyBRN-_-57" vertex="1">
          <mxGeometry y="60" width="160" height="30" as="geometry" />
        </mxCell>
        <mxCell id="9yVn5tu1MOSAHcyBRN-_-61" value="rubr_list" style="swimlane;fontStyle=0;childLayout=stackLayout;horizontal=1;startSize=30;horizontalStack=0;resizeParent=1;resizeParentMax=0;resizeLast=0;collapsible=1;marginBottom=0;whiteSpace=wrap;html=1;" parent="1" vertex="1">
          <mxGeometry x="350" y="810" width="140" height="90" as="geometry" />
        </mxCell>
        <mxCell id="9yVn5tu1MOSAHcyBRN-_-62" value="id" style="text;strokeColor=none;fillColor=none;align=left;verticalAlign=middle;spacingLeft=4;spacingRight=4;overflow=hidden;points=[[0,0.5],[1,0.5]];portConstraint=eastwest;rotatable=0;whiteSpace=wrap;html=1;" parent="9yVn5tu1MOSAHcyBRN-_-61" vertex="1">
          <mxGeometry y="30" width="140" height="30" as="geometry" />
        </mxCell>
        <mxCell id="9yVn5tu1MOSAHcyBRN-_-63" value="name" style="text;strokeColor=none;fillColor=none;align=left;verticalAlign=middle;spacingLeft=4;spacingRight=4;overflow=hidden;points=[[0,0.5],[1,0.5]];portConstraint=eastwest;rotatable=0;whiteSpace=wrap;html=1;" parent="9yVn5tu1MOSAHcyBRN-_-61" vertex="1">
          <mxGeometry y="60" width="140" height="30" as="geometry" />
        </mxCell>
        <mxCell id="9yVn5tu1MOSAHcyBRN-_-64" value="rubr_user_roles" style="swimlane;fontStyle=0;childLayout=stackLayout;horizontal=1;startSize=30;horizontalStack=0;resizeParent=1;resizeParentMax=0;resizeLast=0;collapsible=1;marginBottom=0;whiteSpace=wrap;html=1;" parent="1" vertex="1">
          <mxGeometry x="59" y="950" width="140" height="90" as="geometry" />
        </mxCell>
        <mxCell id="9yVn5tu1MOSAHcyBRN-_-65" value="id" style="text;strokeColor=none;fillColor=none;align=left;verticalAlign=middle;spacingLeft=4;spacingRight=4;overflow=hidden;points=[[0,0.5],[1,0.5]];portConstraint=eastwest;rotatable=0;whiteSpace=wrap;html=1;" parent="9yVn5tu1MOSAHcyBRN-_-64" vertex="1">
          <mxGeometry y="30" width="140" height="30" as="geometry" />
        </mxCell>
        <mxCell id="9yVn5tu1MOSAHcyBRN-_-66" value="name" style="text;strokeColor=none;fillColor=none;align=left;verticalAlign=middle;spacingLeft=4;spacingRight=4;overflow=hidden;points=[[0,0.5],[1,0.5]];portConstraint=eastwest;rotatable=0;whiteSpace=wrap;html=1;" parent="9yVn5tu1MOSAHcyBRN-_-64" vertex="1">
          <mxGeometry y="60" width="140" height="30" as="geometry" />
        </mxCell>
        <mxCell id="9yVn5tu1MOSAHcyBRN-_-68" value="rubr_request_statuses" style="swimlane;fontStyle=0;childLayout=stackLayout;horizontal=1;startSize=30;horizontalStack=0;resizeParent=1;resizeParentMax=0;resizeLast=0;collapsible=1;marginBottom=0;whiteSpace=wrap;html=1;" parent="1" vertex="1">
          <mxGeometry x="502" y="950" width="140" height="90" as="geometry" />
        </mxCell>
        <mxCell id="9yVn5tu1MOSAHcyBRN-_-69" value="id" style="text;strokeColor=none;fillColor=none;align=left;verticalAlign=middle;spacingLeft=4;spacingRight=4;overflow=hidden;points=[[0,0.5],[1,0.5]];portConstraint=eastwest;rotatable=0;whiteSpace=wrap;html=1;" parent="9yVn5tu1MOSAHcyBRN-_-68" vertex="1">
          <mxGeometry y="30" width="140" height="30" as="geometry" />
        </mxCell>
        <mxCell id="9yVn5tu1MOSAHcyBRN-_-70" value="name" style="text;strokeColor=none;fillColor=none;align=left;verticalAlign=middle;spacingLeft=4;spacingRight=4;overflow=hidden;points=[[0,0.5],[1,0.5]];portConstraint=eastwest;rotatable=0;whiteSpace=wrap;html=1;" parent="9yVn5tu1MOSAHcyBRN-_-68" vertex="1">
          <mxGeometry y="60" width="140" height="30" as="geometry" />
        </mxCell>
        <mxCell id="9yVn5tu1MOSAHcyBRN-_-71" value="rubr_equipment_nomenclatures" style="swimlane;fontStyle=0;childLayout=stackLayout;horizontal=1;startSize=30;horizontalStack=0;resizeParent=1;resizeParentMax=0;resizeLast=0;collapsible=1;marginBottom=0;whiteSpace=wrap;html=1;" parent="1" vertex="1">
          <mxGeometry x="262" y="950" width="180" height="90" as="geometry" />
        </mxCell>
        <mxCell id="9yVn5tu1MOSAHcyBRN-_-72" value="id" style="text;strokeColor=none;fillColor=none;align=left;verticalAlign=middle;spacingLeft=4;spacingRight=4;overflow=hidden;points=[[0,0.5],[1,0.5]];portConstraint=eastwest;rotatable=0;whiteSpace=wrap;html=1;" parent="9yVn5tu1MOSAHcyBRN-_-71" vertex="1">
          <mxGeometry y="30" width="180" height="30" as="geometry" />
        </mxCell>
        <mxCell id="9yVn5tu1MOSAHcyBRN-_-73" value="name" style="text;strokeColor=none;fillColor=none;align=left;verticalAlign=middle;spacingLeft=4;spacingRight=4;overflow=hidden;points=[[0,0.5],[1,0.5]];portConstraint=eastwest;rotatable=0;whiteSpace=wrap;html=1;" parent="9yVn5tu1MOSAHcyBRN-_-71" vertex="1">
          <mxGeometry y="60" width="180" height="30" as="geometry" />
        </mxCell>
        <mxCell id="y9WzkXpqN7y2kiezJbfK-1" value="FK" style="text;html=1;align=center;verticalAlign=middle;resizable=0;points=[];autosize=1;strokeColor=none;fillColor=none;" parent="1" vertex="1">
          <mxGeometry x="200" y="60" width="40" height="30" as="geometry" />
        </mxCell>
        <mxCell id="y9WzkXpqN7y2kiezJbfK-2" value="P&lt;span style=&quot;background-color: transparent; color: light-dark(rgb(0, 0, 0), rgb(255, 255, 255));&quot;&gt;K&lt;/span&gt;" style="text;html=1;align=center;verticalAlign=middle;resizable=0;points=[];autosize=1;strokeColor=none;fillColor=none;" parent="1" vertex="1">
          <mxGeometry x="350" y="30" width="40" height="30" as="geometry" />
        </mxCell>
        <mxCell id="y9WzkXpqN7y2kiezJbfK-3" value="" style="endArrow=none;html=1;rounded=0;exitX=0;exitY=0.5;exitDx=0;exitDy=0;entryX=0;entryY=0.5;entryDx=0;entryDy=0;" parent="1" source="9yVn5tu1MOSAHcyBRN-_-52" target="9yVn5tu1MOSAHcyBRN-_-28" edge="1">
          <mxGeometry width="50" height="50" relative="1" as="geometry">
            <mxPoint x="10" y="374" as="sourcePoint" />
            <mxPoint x="40" y="50" as="targetPoint" />
            <Array as="points">
              <mxPoint x="40" y="475" />
              <mxPoint x="40" y="55" />
            </Array>
          </mxGeometry>
        </mxCell>
        <mxCell id="y9WzkXpqN7y2kiezJbfK-4" value="FK" style="text;html=1;align=center;verticalAlign=middle;resizable=0;points=[];autosize=1;strokeColor=none;fillColor=none;" parent="1" vertex="1">
          <mxGeometry x="74" y="450" width="40" height="30" as="geometry" />
        </mxCell>
        <mxCell id="y9WzkXpqN7y2kiezJbfK-6" value="P&lt;span style=&quot;background-color: transparent; color: light-dark(rgb(0, 0, 0), rgb(255, 255, 255));&quot;&gt;K&lt;/span&gt;" style="text;html=1;align=center;verticalAlign=middle;resizable=0;points=[];autosize=1;strokeColor=none;fillColor=none;" parent="1" vertex="1">
          <mxGeometry x="34" y="31" width="40" height="30" as="geometry" />
        </mxCell>
        <mxCell id="y9WzkXpqN7y2kiezJbfK-7" value="" style="endArrow=none;html=1;rounded=0;entryX=0;entryY=0.5;entryDx=0;entryDy=0;" parent="1" target="9yVn5tu1MOSAHcyBRN-_-53" edge="1">
          <mxGeometry width="50" height="50" relative="1" as="geometry">
            <mxPoint x="40" y="470" as="sourcePoint" />
            <mxPoint x="100" y="530" as="targetPoint" />
            <Array as="points">
              <mxPoint x="40" y="505" />
            </Array>
          </mxGeometry>
        </mxCell>
        <mxCell id="y9WzkXpqN7y2kiezJbfK-8" value="FK" style="text;html=1;align=center;verticalAlign=middle;resizable=0;points=[];autosize=1;strokeColor=none;fillColor=none;" parent="1" vertex="1">
          <mxGeometry x="74" y="480" width="40" height="30" as="geometry" />
        </mxCell>
        <mxCell id="y9WzkXpqN7y2kiezJbfK-9" value="" style="endArrow=none;html=1;rounded=0;entryX=0;entryY=0.5;entryDx=0;entryDy=0;exitX=1;exitY=0.5;exitDx=0;exitDy=0;" parent="1" source="9yVn5tu1MOSAHcyBRN-_-40" target="9yVn5tu1MOSAHcyBRN-_-62" edge="1">
          <mxGeometry width="50" height="50" relative="1" as="geometry">
            <mxPoint x="270" y="800" as="sourcePoint" />
            <mxPoint x="340" y="835" as="targetPoint" />
            <Array as="points">
              <mxPoint x="300" y="715" />
              <mxPoint x="300" y="855" />
            </Array>
          </mxGeometry>
        </mxCell>
        <mxCell id="y9WzkXpqN7y2kiezJbfK-10" value="" style="endArrow=none;html=1;rounded=0;entryX=0;entryY=0.5;entryDx=0;entryDy=0;exitX=1;exitY=0.5;exitDx=0;exitDy=0;" parent="1" source="9yVn5tu1MOSAHcyBRN-_-56" target="9yVn5tu1MOSAHcyBRN-_-58" edge="1">
          <mxGeometry width="50" height="50" relative="1" as="geometry">
            <mxPoint x="335" y="500" as="sourcePoint" />
            <mxPoint x="405" y="535" as="targetPoint" />
            <Array as="points">
              <mxPoint x="280" y="535" />
              <mxPoint x="280" y="445" />
            </Array>
          </mxGeometry>
        </mxCell>
        <mxCell id="y9WzkXpqN7y2kiezJbfK-11" value="FK" style="text;html=1;align=center;verticalAlign=middle;resizable=0;points=[];autosize=1;strokeColor=none;fillColor=none;" parent="1" vertex="1">
          <mxGeometry x="240" y="510" width="40" height="30" as="geometry" />
        </mxCell>
        <mxCell id="y9WzkXpqN7y2kiezJbfK-12" value="PK" style="text;html=1;align=center;verticalAlign=middle;resizable=0;points=[];autosize=1;strokeColor=none;fillColor=none;" parent="1" vertex="1">
          <mxGeometry x="277" y="421" width="40" height="30" as="geometry" />
        </mxCell>
        <mxCell id="y9WzkXpqN7y2kiezJbfK-14" value="" style="endArrow=none;html=1;rounded=0;entryX=0;entryY=0.5;entryDx=0;entryDy=0;" parent="1" edge="1">
          <mxGeometry width="50" height="50" relative="1" as="geometry">
            <mxPoint x="40" y="500" as="sourcePoint" />
            <mxPoint x="110" y="655" as="targetPoint" />
            <Array as="points">
              <mxPoint x="40" y="655" />
            </Array>
          </mxGeometry>
        </mxCell>
        <mxCell id="y9WzkXpqN7y2kiezJbfK-15" value="FK" style="text;html=1;align=center;verticalAlign=middle;resizable=0;points=[];autosize=1;strokeColor=none;fillColor=none;" parent="1" vertex="1">
          <mxGeometry x="77" y="630" width="40" height="30" as="geometry" />
        </mxCell>
        <mxCell id="y9WzkXpqN7y2kiezJbfK-16" value="FK" style="text;html=1;align=center;verticalAlign=middle;resizable=0;points=[];autosize=1;strokeColor=none;fillColor=none;" parent="1" vertex="1">
          <mxGeometry x="240" y="690" width="40" height="30" as="geometry" />
        </mxCell>
        <mxCell id="y9WzkXpqN7y2kiezJbfK-17" value="PK" style="text;html=1;align=center;verticalAlign=middle;resizable=0;points=[];autosize=1;strokeColor=none;fillColor=none;" parent="1" vertex="1">
          <mxGeometry x="312" y="831" width="40" height="30" as="geometry" />
        </mxCell>
        <mxCell id="y9WzkXpqN7y2kiezJbfK-21" value="" style="endArrow=none;html=1;rounded=0;entryX=0;entryY=0.5;entryDx=0;entryDy=0;exitX=1;exitY=0.5;exitDx=0;exitDy=0;" parent="1" target="9yVn5tu1MOSAHcyBRN-_-46" edge="1">
          <mxGeometry width="50" height="50" relative="1" as="geometry">
            <mxPoint x="250" y="746" as="sourcePoint" />
            <mxPoint x="310" y="656" as="targetPoint" />
            <Array as="points">
              <mxPoint x="280" y="746" />
              <mxPoint x="280" y="615" />
            </Array>
          </mxGeometry>
        </mxCell>
        <mxCell id="y9WzkXpqN7y2kiezJbfK-22" value="FK" style="text;html=1;align=center;verticalAlign=middle;resizable=0;points=[];autosize=1;strokeColor=none;fillColor=none;" parent="1" vertex="1">
          <mxGeometry x="240" y="721" width="40" height="30" as="geometry" />
        </mxCell>
        <mxCell id="y9WzkXpqN7y2kiezJbfK-23" value="PK" style="text;html=1;align=center;verticalAlign=middle;resizable=0;points=[];autosize=1;strokeColor=none;fillColor=none;" parent="1" vertex="1">
          <mxGeometry x="277" y="585" width="40" height="30" as="geometry" />
        </mxCell>
        <mxCell id="y9WzkXpqN7y2kiezJbfK-25" value="" style="endArrow=none;html=1;rounded=0;exitX=0.5;exitY=0;exitDx=0;exitDy=0;entryX=0;entryY=0.5;entryDx=0;entryDy=0;dashed=1;" parent="1" source="9yVn5tu1MOSAHcyBRN-_-1" target="9yVn5tu1MOSAHcyBRN-_-20" edge="1">
          <mxGeometry width="50" height="50" relative="1" as="geometry">
            <mxPoint x="219" y="99" as="sourcePoint" />
            <mxPoint x="400" y="65" as="targetPoint" />
            <Array as="points">
              <mxPoint x="190" y="140" />
              <mxPoint x="360" y="140" />
              <mxPoint x="360" y="85" />
            </Array>
          </mxGeometry>
        </mxCell>
        <mxCell id="y9WzkXpqN7y2kiezJbfK-28" value="" style="endArrow=none;html=1;rounded=0;exitX=0.5;exitY=0;exitDx=0;exitDy=0;dashed=1;" parent="1" source="9yVn5tu1MOSAHcyBRN-_-14" edge="1">
          <mxGeometry width="50" height="50" relative="1" as="geometry">
            <mxPoint x="200" y="170" as="sourcePoint" />
            <mxPoint x="360" y="140" as="targetPoint" />
            <Array as="points">
              <mxPoint x="730" y="140" />
            </Array>
          </mxGeometry>
        </mxCell>
        <mxCell id="y9WzkXpqN7y2kiezJbfK-29" value="" style="endArrow=none;html=1;rounded=0;exitX=0.5;exitY=0;exitDx=0;exitDy=0;dashed=1;" parent="1" source="9yVn5tu1MOSAHcyBRN-_-10" edge="1">
          <mxGeometry width="50" height="50" relative="1" as="geometry">
            <mxPoint x="778" y="120" as="sourcePoint" />
            <mxPoint x="548" y="140" as="targetPoint" />
            <Array as="points" />
          </mxGeometry>
        </mxCell>
        <mxCell id="y9WzkXpqN7y2kiezJbfK-30" value="" style="endArrow=none;html=1;rounded=0;exitX=0.5;exitY=0;exitDx=0;exitDy=0;dashed=1;" parent="1" source="9yVn5tu1MOSAHcyBRN-_-6" edge="1">
          <mxGeometry width="50" height="50" relative="1" as="geometry">
            <mxPoint x="562" y="169" as="sourcePoint" />
            <mxPoint x="372" y="139" as="targetPoint" />
            <Array as="points" />
          </mxGeometry>
        </mxCell>
        <mxCell id="y9WzkXpqN7y2kiezJbfK-31" value="" style="endArrow=none;html=1;rounded=0;exitX=0.5;exitY=0;exitDx=0;exitDy=0;entryX=0;entryY=0.5;entryDx=0;entryDy=0;dashed=1;" parent="1" source="9yVn5tu1MOSAHcyBRN-_-64" target="9yVn5tu1MOSAHcyBRN-_-63" edge="1">
          <mxGeometry width="50" height="50" relative="1" as="geometry">
            <mxPoint x="132" y="965" as="sourcePoint" />
            <mxPoint x="332" y="890" as="targetPoint" />
            <Array as="points">
              <mxPoint x="129" y="920" />
              <mxPoint x="302" y="920" />
              <mxPoint x="302" y="885" />
            </Array>
          </mxGeometry>
        </mxCell>
        <mxCell id="y9WzkXpqN7y2kiezJbfK-32" value="" style="endArrow=none;html=1;rounded=0;exitX=0.5;exitY=0;exitDx=0;exitDy=0;dashed=1;" parent="1" edge="1">
          <mxGeometry width="50" height="50" relative="1" as="geometry">
            <mxPoint x="302" y="950" as="sourcePoint" />
            <mxPoint x="302" y="920" as="targetPoint" />
            <Array as="points" />
          </mxGeometry>
        </mxCell>
        <mxCell id="y9WzkXpqN7y2kiezJbfK-33" value="" style="endArrow=none;html=1;rounded=0;dashed=1;exitX=0.5;exitY=0;exitDx=0;exitDy=0;" parent="1" source="9yVn5tu1MOSAHcyBRN-_-68" edge="1">
          <mxGeometry width="50" height="50" relative="1" as="geometry">
            <mxPoint x="472" y="930" as="sourcePoint" />
            <mxPoint x="302" y="920" as="targetPoint" />
            <Array as="points">
              <mxPoint x="572" y="920" />
            </Array>
          </mxGeometry>
        </mxCell>
        <mxCell id="y9WzkXpqN7y2kiezJbfK-34" value="" style="endArrow=none;html=1;rounded=0;exitX=0;exitY=0.5;exitDx=0;exitDy=0;entryX=0;entryY=0.5;entryDx=0;entryDy=0;dashed=1;" parent="1" source="9yVn5tu1MOSAHcyBRN-_-69" target="9yVn5tu1MOSAHcyBRN-_-42" edge="1">
          <mxGeometry width="50" height="50" relative="1" as="geometry">
            <mxPoint x="-60" y="870" as="sourcePoint" />
            <mxPoint x="150" y="810" as="targetPoint" />
            <Array as="points">
              <mxPoint x="470" y="995" />
              <mxPoint x="470" y="1080" />
              <mxPoint x="40" y="1080" />
              <mxPoint x="40" y="685" />
            </Array>
          </mxGeometry>
        </mxCell>
        <mxCell id="y9WzkXpqN7y2kiezJbfK-35" value="" style="endArrow=none;html=1;rounded=0;exitX=0;exitY=0.5;exitDx=0;exitDy=0;dashed=1;" parent="1" source="9yVn5tu1MOSAHcyBRN-_-65" edge="1">
          <mxGeometry width="50" height="50" relative="1" as="geometry">
            <mxPoint x="330" y="960" as="sourcePoint" />
            <mxPoint x="40" y="995" as="targetPoint" />
            <Array as="points" />
          </mxGeometry>
        </mxCell>
        <mxCell id="y9WzkXpqN7y2kiezJbfK-36" value="" style="endArrow=none;html=1;rounded=0;exitX=0;exitY=0.5;exitDx=0;exitDy=0;dashed=1;" parent="1" source="9yVn5tu1MOSAHcyBRN-_-72" edge="1">
          <mxGeometry width="50" height="50" relative="1" as="geometry">
            <mxPoint x="69" y="1005" as="sourcePoint" />
            <mxPoint x="232" y="1080" as="targetPoint" />
            <Array as="points">
              <mxPoint x="232" y="995" />
            </Array>
          </mxGeometry>
        </mxCell>
        <mxCell id="mxWsvHkhdjBiguELYli5-3" value="" style="endArrow=none;html=1;rounded=0;entryX=0;entryY=0.5;entryDx=0;entryDy=0;" parent="1" target="9yVn5tu1MOSAHcyBRN-_-15" edge="1">
          <mxGeometry width="50" height="50" relative="1" as="geometry">
            <mxPoint x="40" y="330" as="sourcePoint" />
            <mxPoint x="440" y="330" as="targetPoint" />
            <Array as="points">
              <mxPoint x="640" y="330" />
              <mxPoint x="640" y="205" />
            </Array>
          </mxGeometry>
        </mxCell>
        <mxCell id="mxWsvHkhdjBiguELYli5-4" value="" style="endArrow=none;html=1;rounded=0;entryX=0;entryY=0.5;entryDx=0;entryDy=0;" parent="1" target="9yVn5tu1MOSAHcyBRN-_-7" edge="1">
          <mxGeometry width="50" height="50" relative="1" as="geometry">
            <mxPoint x="278" y="329" as="sourcePoint" />
            <mxPoint x="498" y="269" as="targetPoint" />
            <Array as="points">
              <mxPoint x="278" y="204" />
            </Array>
          </mxGeometry>
        </mxCell>
        <mxCell id="mxWsvHkhdjBiguELYli5-5" value="" style="endArrow=none;html=1;rounded=0;entryX=0;entryY=0.5;entryDx=0;entryDy=0;" parent="1" target="9yVn5tu1MOSAHcyBRN-_-11" edge="1">
          <mxGeometry width="50" height="50" relative="1" as="geometry">
            <mxPoint x="460" y="330" as="sourcePoint" />
            <mxPoint x="454" y="200" as="targetPoint" />
            <Array as="points">
              <mxPoint x="460" y="205" />
            </Array>
          </mxGeometry>
        </mxCell>
        <mxCell id="Je46MNNiVE4Rmiw2iMBX-1" value="FK" style="text;html=1;align=center;verticalAlign=middle;resizable=0;points=[];autosize=1;strokeColor=none;fillColor=none;" parent="1" vertex="1">
          <mxGeometry x="84" y="179" width="40" height="30" as="geometry" />
        </mxCell>
        <mxCell id="Je46MNNiVE4Rmiw2iMBX-3" value="FK" style="text;html=1;align=center;verticalAlign=middle;resizable=0;points=[];autosize=1;strokeColor=none;fillColor=none;" parent="1" vertex="1">
          <mxGeometry x="447" y="182" width="40" height="30" as="geometry" />
        </mxCell>
        <mxCell id="Je46MNNiVE4Rmiw2iMBX-4" value="FK" style="text;html=1;align=center;verticalAlign=middle;resizable=0;points=[];autosize=1;strokeColor=none;fillColor=none;" parent="1" vertex="1">
          <mxGeometry x="270" y="179" width="40" height="30" as="geometry" />
        </mxCell>
        <mxCell id="Je46MNNiVE4Rmiw2iMBX-5" value="FK" style="text;html=1;align=center;verticalAlign=middle;resizable=0;points=[];autosize=1;strokeColor=none;fillColor=none;" parent="1" vertex="1">
          <mxGeometry x="629" y="181" width="40" height="30" as="geometry" />
        </mxCell>
        <mxCell id="yGQ38cz7jYKU3NlnWjbp-12" value="bnd_object_object_type" style="shape=table;startSize=30;container=1;collapsible=0;childLayout=tableLayout;fixedRows=1;rowLines=0;fontStyle=0;strokeColor=default;fontSize=12;" parent="1" vertex="1">
          <mxGeometry x="521" y="400" width="199" height="90" as="geometry" />
        </mxCell>
        <mxCell id="yGQ38cz7jYKU3NlnWjbp-13" value="" style="shape=tableRow;horizontal=0;startSize=0;swimlaneHead=0;swimlaneBody=0;top=0;left=0;bottom=0;right=0;collapsible=0;dropTarget=0;fillColor=none;points=[[0,0.5],[1,0.5]];portConstraint=eastwest;strokeColor=inherit;fontSize=12;" parent="yGQ38cz7jYKU3NlnWjbp-12" vertex="1">
          <mxGeometry y="30" width="199" height="30" as="geometry" />
        </mxCell>
        <mxCell id="yGQ38cz7jYKU3NlnWjbp-14" value="1" style="shape=partialRectangle;html=1;whiteSpace=wrap;connectable=0;fillColor=none;top=0;left=0;bottom=0;right=0;overflow=hidden;pointerEvents=1;strokeColor=inherit;fontSize=12;" parent="yGQ38cz7jYKU3NlnWjbp-13" vertex="1">
          <mxGeometry width="16" height="30" as="geometry">
            <mxRectangle width="16" height="30" as="alternateBounds" />
          </mxGeometry>
        </mxCell>
        <mxCell id="yGQ38cz7jYKU3NlnWjbp-15" value="Пользователь создал заявку" style="shape=partialRectangle;html=1;whiteSpace=wrap;connectable=0;fillColor=none;top=0;left=0;bottom=0;right=0;align=left;spacingLeft=6;overflow=hidden;strokeColor=inherit;fontSize=12;" parent="yGQ38cz7jYKU3NlnWjbp-13" vertex="1">
          <mxGeometry x="16" width="183" height="30" as="geometry">
            <mxRectangle width="183" height="30" as="alternateBounds" />
          </mxGeometry>
        </mxCell>
        <mxCell id="yGQ38cz7jYKU3NlnWjbp-16" value="" style="shape=tableRow;horizontal=0;startSize=0;swimlaneHead=0;swimlaneBody=0;top=0;left=0;bottom=0;right=0;collapsible=0;dropTarget=0;fillColor=none;points=[[0,0.5],[1,0.5]];portConstraint=eastwest;strokeColor=inherit;fontSize=12;" parent="yGQ38cz7jYKU3NlnWjbp-12" vertex="1">
          <mxGeometry y="60" width="199" height="30" as="geometry" />
        </mxCell>
        <mxCell id="yGQ38cz7jYKU3NlnWjbp-17" value="2" style="shape=partialRectangle;html=1;whiteSpace=wrap;connectable=0;fillColor=none;top=0;left=0;bottom=0;right=0;overflow=hidden;strokeColor=inherit;fontSize=12;" parent="yGQ38cz7jYKU3NlnWjbp-16" vertex="1">
          <mxGeometry width="16" height="30" as="geometry">
            <mxRectangle width="16" height="30" as="alternateBounds" />
          </mxGeometry>
        </mxCell>
        <mxCell id="yGQ38cz7jYKU3NlnWjbp-18" value="Заявка содержит позицию" style="shape=partialRectangle;html=1;whiteSpace=wrap;connectable=0;fillColor=none;top=0;left=0;bottom=0;right=0;align=left;spacingLeft=6;overflow=hidden;strokeColor=inherit;fontSize=12;" parent="yGQ38cz7jYKU3NlnWjbp-16" vertex="1">
          <mxGeometry x="16" width="183" height="30" as="geometry">
            <mxRectangle width="183" height="30" as="alternateBounds" />
          </mxGeometry>
        </mxCell>
        <mxCell id="yGQ38cz7jYKU3NlnWjbp-35" value="" style="shape=tableRow;horizontal=0;startSize=0;swimlaneHead=0;swimlaneBody=0;top=0;left=0;bottom=0;right=0;collapsible=0;dropTarget=0;fillColor=none;points=[[0,0.5],[1,0.5]];portConstraint=eastwest;strokeColor=inherit;fontSize=12;" parent="1" vertex="1">
          <mxGeometry x="530" y="680" width="199" height="30" as="geometry" />
        </mxCell>
        <mxCell id="yGQ38cz7jYKU3NlnWjbp-45" value="bnd_object_rubricator_type" style="shape=table;startSize=30;container=1;collapsible=0;childLayout=tableLayout;fixedRows=1;rowLines=0;fontStyle=0;strokeColor=default;fontSize=12;" parent="1" vertex="1">
          <mxGeometry x="520" y="560" width="199" height="150" as="geometry" />
        </mxCell>
        <mxCell id="yGQ38cz7jYKU3NlnWjbp-46" value="" style="shape=tableRow;horizontal=0;startSize=0;swimlaneHead=0;swimlaneBody=0;top=0;left=0;bottom=0;right=0;collapsible=0;dropTarget=0;fillColor=none;points=[[0,0.5],[1,0.5]];portConstraint=eastwest;strokeColor=inherit;fontSize=12;" parent="yGQ38cz7jYKU3NlnWjbp-45" vertex="1">
          <mxGeometry y="30" width="199" height="30" as="geometry" />
        </mxCell>
        <mxCell id="yGQ38cz7jYKU3NlnWjbp-47" value="1" style="shape=partialRectangle;html=1;whiteSpace=wrap;connectable=0;fillColor=none;top=0;left=0;bottom=0;right=0;overflow=hidden;pointerEvents=1;strokeColor=inherit;fontSize=12;" parent="yGQ38cz7jYKU3NlnWjbp-46" vertex="1">
          <mxGeometry width="16" height="30" as="geometry">
            <mxRectangle width="16" height="30" as="alternateBounds" />
          </mxGeometry>
        </mxCell>
        <mxCell id="yGQ38cz7jYKU3NlnWjbp-48" value="Роль пользователя" style="shape=partialRectangle;html=1;whiteSpace=wrap;connectable=0;fillColor=none;top=0;left=0;bottom=0;right=0;align=left;spacingLeft=6;overflow=hidden;strokeColor=inherit;fontSize=12;" parent="yGQ38cz7jYKU3NlnWjbp-46" vertex="1">
          <mxGeometry x="16" width="183" height="30" as="geometry">
            <mxRectangle width="183" height="30" as="alternateBounds" />
          </mxGeometry>
        </mxCell>
        <mxCell id="yGQ38cz7jYKU3NlnWjbp-49" value="" style="shape=tableRow;horizontal=0;startSize=0;swimlaneHead=0;swimlaneBody=0;top=0;left=0;bottom=0;right=0;collapsible=0;dropTarget=0;fillColor=none;points=[[0,0.5],[1,0.5]];portConstraint=eastwest;strokeColor=inherit;fontSize=12;" parent="yGQ38cz7jYKU3NlnWjbp-45" vertex="1">
          <mxGeometry y="60" width="199" height="30" as="geometry" />
        </mxCell>
        <mxCell id="yGQ38cz7jYKU3NlnWjbp-50" value="2" style="shape=partialRectangle;html=1;whiteSpace=wrap;connectable=0;fillColor=none;top=0;left=0;bottom=0;right=0;overflow=hidden;strokeColor=inherit;fontSize=12;" parent="yGQ38cz7jYKU3NlnWjbp-49" vertex="1">
          <mxGeometry width="16" height="30" as="geometry">
            <mxRectangle width="16" height="30" as="alternateBounds" />
          </mxGeometry>
        </mxCell>
        <mxCell id="yGQ38cz7jYKU3NlnWjbp-51" value="Номенклатура ТМЦ" style="shape=partialRectangle;html=1;whiteSpace=wrap;connectable=0;fillColor=none;top=0;left=0;bottom=0;right=0;align=left;spacingLeft=6;overflow=hidden;strokeColor=inherit;fontSize=12;" parent="yGQ38cz7jYKU3NlnWjbp-49" vertex="1">
          <mxGeometry x="16" width="183" height="30" as="geometry">
            <mxRectangle width="183" height="30" as="alternateBounds" />
          </mxGeometry>
        </mxCell>
        <mxCell id="yGQ38cz7jYKU3NlnWjbp-52" style="shape=tableRow;horizontal=0;startSize=0;swimlaneHead=0;swimlaneBody=0;top=0;left=0;bottom=0;right=0;collapsible=0;dropTarget=0;fillColor=none;points=[[0,0.5],[1,0.5]];portConstraint=eastwest;strokeColor=inherit;fontSize=12;" parent="yGQ38cz7jYKU3NlnWjbp-45" vertex="1">
          <mxGeometry y="90" width="199" height="30" as="geometry" />
        </mxCell>
        <mxCell id="yGQ38cz7jYKU3NlnWjbp-53" value="3" style="shape=partialRectangle;html=1;whiteSpace=wrap;connectable=0;fillColor=none;top=0;left=0;bottom=0;right=0;overflow=hidden;strokeColor=inherit;fontSize=12;" parent="yGQ38cz7jYKU3NlnWjbp-52" vertex="1">
          <mxGeometry width="16" height="30" as="geometry">
            <mxRectangle width="16" height="30" as="alternateBounds" />
          </mxGeometry>
        </mxCell>
        <mxCell id="yGQ38cz7jYKU3NlnWjbp-54" value="Статус заявки" style="shape=partialRectangle;html=1;whiteSpace=wrap;connectable=0;fillColor=none;top=0;left=0;bottom=0;right=0;align=left;spacingLeft=6;overflow=hidden;strokeColor=inherit;fontSize=12;" parent="yGQ38cz7jYKU3NlnWjbp-52" vertex="1">
          <mxGeometry x="16" width="183" height="30" as="geometry">
            <mxRectangle width="183" height="30" as="alternateBounds" />
          </mxGeometry>
        </mxCell>
        <mxCell id="yGQ38cz7jYKU3NlnWjbp-55" style="shape=tableRow;horizontal=0;startSize=0;swimlaneHead=0;swimlaneBody=0;top=0;left=0;bottom=0;right=0;collapsible=0;dropTarget=0;fillColor=none;points=[[0,0.5],[1,0.5]];portConstraint=eastwest;strokeColor=inherit;fontSize=12;" parent="yGQ38cz7jYKU3NlnWjbp-45" vertex="1">
          <mxGeometry y="120" width="199" height="30" as="geometry" />
        </mxCell>
        <mxCell id="yGQ38cz7jYKU3NlnWjbp-56" value="4" style="shape=partialRectangle;html=1;whiteSpace=wrap;connectable=0;fillColor=none;top=0;left=0;bottom=0;right=0;overflow=hidden;strokeColor=inherit;fontSize=12;" parent="yGQ38cz7jYKU3NlnWjbp-55" vertex="1">
          <mxGeometry width="16" height="30" as="geometry">
            <mxRectangle width="16" height="30" as="alternateBounds" />
          </mxGeometry>
        </mxCell>
        <mxCell id="yGQ38cz7jYKU3NlnWjbp-57" value="Статус позиции в заявке" style="shape=partialRectangle;html=1;whiteSpace=wrap;connectable=0;fillColor=none;top=0;left=0;bottom=0;right=0;align=left;spacingLeft=6;overflow=hidden;strokeColor=inherit;fontSize=12;" parent="yGQ38cz7jYKU3NlnWjbp-55" vertex="1">
          <mxGeometry x="16" width="183" height="30" as="geometry">
            <mxRectangle width="183" height="30" as="alternateBounds" />
          </mxGeometry>
        </mxCell>
        <mxCell id="2tC5aG3o96jDkHIuKX9f-1" value="rubr_request_statuses" style="shape=table;startSize=30;container=1;collapsible=0;childLayout=tableLayout;fixedRows=1;rowLines=0;fontStyle=0;strokeColor=default;fontSize=12;" vertex="1" parent="1">
          <mxGeometry x="589" y="820" width="140" height="90" as="geometry" />
        </mxCell>
        <mxCell id="2tC5aG3o96jDkHIuKX9f-2" value="" style="shape=tableRow;horizontal=0;startSize=0;swimlaneHead=0;swimlaneBody=0;top=0;left=0;bottom=0;right=0;collapsible=0;dropTarget=0;fillColor=none;points=[[0,0.5],[1,0.5]];portConstraint=eastwest;strokeColor=inherit;fontSize=12;" vertex="1" parent="2tC5aG3o96jDkHIuKX9f-1">
          <mxGeometry y="30" width="140" height="30" as="geometry" />
        </mxCell>
        <mxCell id="2tC5aG3o96jDkHIuKX9f-3" value="1" style="shape=partialRectangle;html=1;whiteSpace=wrap;connectable=0;fillColor=none;top=0;left=0;bottom=0;right=0;overflow=hidden;pointerEvents=1;strokeColor=inherit;fontSize=12;" vertex="1" parent="2tC5aG3o96jDkHIuKX9f-2">
          <mxGeometry width="11" height="30" as="geometry">
            <mxRectangle width="11" height="30" as="alternateBounds" />
          </mxGeometry>
        </mxCell>
        <mxCell id="2tC5aG3o96jDkHIuKX9f-4" value="Принята" style="shape=partialRectangle;html=1;whiteSpace=wrap;connectable=0;fillColor=none;top=0;left=0;bottom=0;right=0;align=left;spacingLeft=6;overflow=hidden;strokeColor=inherit;fontSize=12;" vertex="1" parent="2tC5aG3o96jDkHIuKX9f-2">
          <mxGeometry x="11" width="129" height="30" as="geometry">
            <mxRectangle width="129" height="30" as="alternateBounds" />
          </mxGeometry>
        </mxCell>
        <mxCell id="2tC5aG3o96jDkHIuKX9f-5" value="" style="shape=tableRow;horizontal=0;startSize=0;swimlaneHead=0;swimlaneBody=0;top=0;left=0;bottom=0;right=0;collapsible=0;dropTarget=0;fillColor=none;points=[[0,0.5],[1,0.5]];portConstraint=eastwest;strokeColor=inherit;fontSize=12;" vertex="1" parent="2tC5aG3o96jDkHIuKX9f-1">
          <mxGeometry y="60" width="140" height="30" as="geometry" />
        </mxCell>
        <mxCell id="2tC5aG3o96jDkHIuKX9f-6" value="2" style="shape=partialRectangle;html=1;whiteSpace=wrap;connectable=0;fillColor=none;top=0;left=0;bottom=0;right=0;overflow=hidden;strokeColor=inherit;fontSize=12;" vertex="1" parent="2tC5aG3o96jDkHIuKX9f-5">
          <mxGeometry width="11" height="30" as="geometry">
            <mxRectangle width="11" height="30" as="alternateBounds" />
          </mxGeometry>
        </mxCell>
        <mxCell id="2tC5aG3o96jDkHIuKX9f-7" value="Исполнена" style="shape=partialRectangle;html=1;whiteSpace=wrap;connectable=0;fillColor=none;top=0;left=0;bottom=0;right=0;align=left;spacingLeft=6;overflow=hidden;strokeColor=inherit;fontSize=12;" vertex="1" parent="2tC5aG3o96jDkHIuKX9f-5">
          <mxGeometry x="11" width="129" height="30" as="geometry">
            <mxRectangle width="129" height="30" as="alternateBounds" />
          </mxGeometry>
        </mxCell>
      </root>
    </mxGraphModel>
  </diagram>
</mxfile>
